<svg width="20" height="20" viewBox="0 0 20 20" fill="none" xmlns="http://www.w3.org/2000/svg">
<path d="M5.41699 10C6.20033 7.11667 9.53366 5 12.5003 5C15.467 5 17.5503 7.11667 18.3337 10C17.5503 12.8917 15.467 15 12.5003 15C9.53366 15 6.20033 12.8917 5.41699 10Z" stroke="#F88749" stroke-width="1.66667" stroke-linecap="round" stroke-linejoin="round"/>
<path d="M15 10V10.4167" stroke="#F88749" stroke-width="1.66667" stroke-linecap="round" stroke-linejoin="round"/>
<path d="M13.3333 14.9417C12.2493 13.5223 11.6621 11.786 11.6621 10C11.6621 8.21408 12.2493 6.47769 13.3333 5.05835" stroke="#F88749" stroke-width="1.66667" stroke-linecap="round" stroke-linejoin="round"/>
<path d="M5.83348 8.89159C5.83348 6.66659 4.65015 4.97492 2.27515 4.58325C1.44181 5.83325 1.44181 8.74992 2.46681 9.99992C1.43348 11.2499 1.43348 14.1666 2.27515 15.4166C4.65015 15.0249 5.83348 13.3333 5.83348 11.1083" stroke="#F88749" stroke-width="1.66667" stroke-linecap="round" stroke-linejoin="round"/>
<path d="M8.71699 6.05001C8.50033 4.90001 7.64199 3.53334 6.66699 2.50001H11.5003C11.8957 2.49855 12.2788 2.63771 12.5811 2.89265C12.8833 3.14759 13.0851 3.50168 13.1503 3.89168L13.342 5.05834" stroke="#F88749" stroke-width="1.66667" stroke-linecap="round" stroke-linejoin="round"/>
<path d="M13.342 14.9417L13.1503 16.1083C13.0851 16.4983 12.8833 16.8524 12.5811 17.1074C12.2788 17.3623 11.8957 17.5015 11.5003 17.5H7.91699C8.72437 16.5846 9.16638 15.4039 9.15866 14.1833" stroke="#F88749" stroke-width="1.66667" stroke-linecap="round" stroke-linejoin="round"/>
</svg>
